<?xml version="1.0"?>
<svg version="1.1" xmlns="http://www.w3.org/2000/svg" width="200px" height="60px" style=""><path fill="#6e7880" d="M51.10205078125,43.658203125q0-0.81298828125,0.081298828125-1.942138671875t0.370361328125-1.869873046875q0.1083984375-0.2529296875,0.460693359375-0.496826171875t0.74072265625-0.298095703125t0.6865234375,0.09033203125t0.298095703125,0.63232421875q0,0.84912109375-0.0361328125,2.14990234375l0,0.56005859375q0,0.99365234375,0.09033203125,1.89697265625q0.12646484375,1.1923828125,0.5419921875,2.00537109375q0.361328125,0.74072265625,1.13818359375,0.74072265625l0.14453125,0q1.06591796875-0.072265625,1.57177734375-0.88525390625t0.6865234375-1.93310546875q0.16259765625-1.02978515625,0.16259765625-2.16796875l0-0.216796875q-0.01806640625-1.2646484375-0.01806640625-2.22216796875q0-3.81201171875-0.2529296875-7.64208984375t-0.2529296875-7.67822265625q0-0.63232421875-0.05419921875-1.373046875q-0.01806640625-0.27099609375-0.01806640625-0.5419921875q0-0.43359375,0.05419921875-0.8310546875q0.09033203125-0.63232421875,0.460693359375-1.056884765625t1.255615234375-0.424560546875q0.48779296875,0,0.894287109375,0.117431640625t0.731689453125,0.478759765625q0.41552734375,4.697265625,0.6865234375,9.548095703125t0.27099609375,9.584228515625q0,1.6259765625-0.27099609375,3.27001953125t-0.99365234375,2.962890625t-2.00537109375,2.14990234375t-3.27001953125,0.8310546875q-1.1923828125,0-1.9873046875-0.424560546875t-1.273681640625-1.165283203125t-0.6865234375-1.725341796875t-0.207763671875-2.122802734375z M65.495014648438,41.32763671875q0-1.662109375,0.388427734375-3.260986328125t0.659423828125-3.188720703125q0.072265625-0.41552734375,0.569091796875-0.514892578125t0.840087890625-0.099365234375q0.59619140625,0,0.95751953125,0.1806640625q0.14453125,0.072265625,0.27099609375,0.16259765625t0.12646484375,0.23486328125q0,1.5537109375-0.370361328125,3.03515625t-0.370361328125,3.1435546875q0,0.56005859375,0.081298828125,1.056884765625t0.153564453125,0.984619140625l0.1083984375,0.52392578125q0,0.14453125,0.01806640625,0.2529296875t0.05419921875,0.2529296875q0,0.3251953125-0.460693359375,0.442626953125t-0.803955078125,0.117431640625q-0.52392578125,0-0.966552734375-0.207763671875t-0.695556640625-0.713623046875l-0.2529296875-0.52392578125q-0.216796875-0.41552734375-0.216796875-0.930419921875t-0.09033203125-0.948486328125z M66.651264648438,30.45166015625l0-0.34326171875q0-0.84912109375,0.424560546875-1.517578125t1.273681640625-0.66845703125q0.1083984375,0,0.207763671875,0.01806640625t0.207763671875,0.01806640625q0.216796875,0.0361328125,0.569091796875,0.171630859375t0.352294921875,0.424560546875l0,0.0361328125q-0.072265625,0.14453125-0.09033203125,0.298095703125t-0.09033203125,0.261962890625l0.0361328125-0.0361328125q-0.216796875,0.56005859375-0.352294921875,0.9033203125t-0.298095703125,0.551025390625t-0.406494140625,0.298095703125t-0.695556640625,0.09033203125q-0.072265625,0-0.2529296875-0.01806640625t-0.388427734375-0.072265625t-0.352294921875-0.14453125t-0.14453125-0.27099609375z M73.402138671875,41.8515625l0-0.52392578125q0-0.650390625,0.0361328125-1.228515625q0.0361328125-0.81298828125,0.0361328125-1.3369140625q0-0.2890625,0.0361328125-0.659423828125t0.1806640625-0.587158203125q0.1806640625-0.1806640625,0.424560546875-0.370361328125t0.532958984375-0.189697265625q0.92138671875,0,1.4453125,0.207763671875t0.56005859375,0.858154296875l0.072265625,0.56005859375q0.3251953125-0.77685546875,0.8671875-1.924072265625t1.255615234375-2.18603515625t1.60791015625-1.7705078125t1.887939453125-0.731689453125q0.92138671875,0,1.517578125,0.8671875t0.948486328125,2.213134765625t0.496826171875,2.9990234375t0.19873046875,3.242919921875t0.072265625,2.899658203125t0.12646484375,1.978271484375q0.072265625,0.56005859375,0.243896484375,1.183349609375t0.171630859375,1.147216796875q0,0.14453125-0.207763671875,0.280029296875t-0.442626953125,0.225830078125t-0.478759765625,0.14453125t-0.352294921875,0.05419921875q-0.70458984375,0-1.002685546875-1.056884765625t-0.370361328125-2.646728515625t-0.072265625-3.441650390625t-0.12646484375-3.441650390625t-0.514892578125-2.646728515625t-1.237548828125-1.093017578125q-0.77685546875,0-1.60791015625,1.002685546875t-1.42724609375,2.664794921875q-0.578125,1.662109375-0.794921875,3.77587890625q-0.072265625,0.66845703125-0.072265625,1.3369140625q0,1.46337890625,0.30712890625,2.9267578125q0.0361328125,0.2529296875-0.207763671875,0.37939453125t-0.605224609375,0.19873046875t-0.731689453125,0.09033203125t-0.569091796875,0.01806640625q-0.70458984375,0-1.129150390625-0.496826171875t-0.659423828125-1.273681640625t-0.316162109375-1.743408203125t-0.099365234375-1.906005859375z M89.818540039062,41.12890625q0-0.99365234375,0.189697265625-2.122802734375t0.650390625-2.068603515625t1.273681640625-1.5537109375t2.07763671875-0.6142578125q0.84912109375,0,1.64404296875,0.280029296875t1.49951171875,0.767822265625q0.216796875-0.361328125,0.6865234375-0.442626953125t0.8310546875-0.081298828125q0.14453125,0,0.406494140625,0.01806640625t0.514892578125,0.1083984375t0.442626953125,0.216796875t0.225830078125,0.361328125q0.14453125,1.2646484375,0.19873046875,2.520263671875t0.16259765625,2.502197265625q0.1806640625,2.33056640625,0.56005859375,4.60693359375t0.37939453125,4.60693359375q0,1.10205078125-0.099365234375,2.384765625t-0.52392578125,2.375732421875t-1.237548828125,1.815673828125t-2.25830078125,0.72265625q-1.30078125,0-1.996337890625-0.460693359375t-1.255615234375-1.544677734375q0.0361328125-0.361328125,0.460693359375-0.478759765625t0.731689453125-0.117431640625q0.2890625,0,0.587158203125,0.05419921875t0.478759765625,0.1806640625l0.45166015625,0.2890625q0.66845703125-1.373046875,0.81298828125-2.9990234375t0.14453125-3.1435546875q0-1.2646484375-0.12646484375-2.502197265625t-0.2529296875-2.484130859375q-1.2646484375,2.29443359375-3.84814453125,2.29443359375q-1.1923828125,0-1.942138671875-0.505859375t-1.15625-1.28271484375t-0.56005859375-1.75244140625t-0.153564453125-1.951171875z M92.040708007812,41.29150390625q0,0.45166015625,0.0361328125,1.165283203125t0.189697265625,1.400146484375t0.442626953125,1.183349609375t0.81298828125,0.496826171875q0.99365234375,0,1.57177734375-0.77685546875t0.912353515625-1.851806640625t0.532958984375-2.22216796875t0.505859375-1.887939453125q-0.0361328125-0.2529296875-0.0361328125-0.496826171875l0-0.496826171875q-0.41552734375-0.77685546875-1.21044921875-1.345947265625t-1.64404296875-0.767822265625q-0.1083984375-0.01806640625-0.19873046875-0.01806640625q-0.505859375,0-0.8310546875,0.59619140625q-0.41552734375,0.72265625-0.650390625,1.725341796875t-0.334228515625,1.978271484375t-0.099365234375,1.31884765625z M105.25935546875,21.16552734375q0-0.361328125,0.56005859375-0.514892578125t0.92138671875-0.153564453125q0.41552734375,0,0.912353515625,0.1083984375t0.605224609375,0.56005859375q0.52392578125,2.11376953125,0.803955078125,4.308837890625t0.424560546875,4.417236328125t0.23486328125,4.417236328125t0.19873046875,4.344970703125q0.48779296875-2.14990234375,1.002685546875-4.272705078125t1.345947265625-4.236572265625l0-1.4453125q0-0.92138671875,0.641357421875-1.327880859375t1.725341796875-0.406494140625q0.1083984375,0,0.496826171875,0.05419921875t0.388427734375,0.361328125q-0.072265625,0.216796875-0.171630859375,0.41552734375t-0.099365234375,0.43359375q0,2.74609375,0.650390625,5.627685546875t1.28271484375,5.609619140625q0.361328125-2.33056640625,0.8310546875-4.64306640625t0.9755859375-4.60693359375q0.66845703125-3.0712890625,1.020751953125-5.103759765625t0.66845703125-3.2158203125t0.6865234375-1.68017578125t1.038818359375-0.496826171875q0.41552734375-0.0361328125,0.77685546875,0.14453125t0.2890625,0.59619140625q-1.30078125,6.287109375-2.429931640625,12.6103515625t-2.303466796875,12.646484375q0,0.361328125,0.12646484375,0.84912109375t0.12646484375,0.8671875q0,0.216796875-0.19873046875,0.361328125t-0.478759765625,0.243896484375t-0.6142578125,0.135498046875t-0.587158203125,0.0361328125q-0.56005859375,0-1.17431640625-0.171630859375t-0.794921875-0.984619140625q-0.63232421875-2.818359375-1.165283203125-5.663818359375t-0.984619140625-5.736083984375q-0.14453125,0.66845703125-0.27099609375,1.35498046875t-0.23486328125,1.39111328125q-0.52392578125,3.0712890625-1.15625,6.142578125t-0.63232421875,6.21484375q0,0.77685546875-0.3251953125,1.002685546875t-1.10205078125,0.225830078125q-0.59619140625,0-1.01171875-0.19873046875q-0.3251953125-0.1806640625-0.6142578125-0.3251953125q-0.2529296875-0.14453125-0.460693359375-0.334228515625t-0.207763671875-0.370361328125q-0.2890625-3.92041015625-0.406494140625-7.78662109375t-0.261962890625-7.78662109375q-0.14453125-3.52294921875-0.424560546875-7.036865234375t-0.623291015625-6.982666015625z M127.20407714844,42.501953125q0-1.2646484375,0.280029296875-2.98095703125t0.948486328125-3.251953125t1.761474609375-2.610595703125t2.755126953125-1.074951171875q1.5537109375,0,2.33056640625,0.894287109375t0.77685546875,2.411865234375q0,0.99365234375-0.370361328125,2.177001953125t-1.056884765625,2.240234375t-1.6259765625,1.761474609375t-2.095703125,0.70458984375l-0.4697265625-0.0361328125q0,0.48779296875,0.14453125,1.309814453125t0.424560546875,1.635009765625t0.72265625,1.42724609375t1.074951171875,0.6142578125q0.92138671875,0,1.7705078125-0.74072265625t1.60791015625-1.64404296875t1.4091796875-1.64404296875t1.1923828125-0.74072265625q0.2890625,0,0.59619140625,0.09033203125t0.34326171875,0.505859375q0,0.2529296875-0.135498046875,0.41552734375t-0.243896484375,0.361328125q-0.56005859375,0.95751953125-1.219482421875,1.82470703125t-1.490478515625,1.57177734375t-1.815673828125,1.111083984375t-2.177001953125,0.406494140625q-1.5537109375,0-2.58349609375-0.551025390625t-1.662109375-1.4814453125t-0.912353515625-2.14990234375t-0.280029296875-2.556396484375z M130.43796386719,41.12890625l0.505859375,0.45166015625q0.361328125,0.3251953125,0.72265625,0.14453125t0.650390625-0.659423828125t0.532958984375-1.183349609375t0.43359375-1.4453125t0.280029296875-1.4453125t0.09033203125-1.17431640625l0-0.6142578125t-0.05419921875-0.650390625t-0.189697265625-0.514892578125t-0.424560546875-0.261962890625q-0.09033203125-0.01806640625-0.16259765625-0.01806640625q-0.6142578125,0-1.0478515625,0.77685546875q-0.4697265625,0.8671875-0.7587890625,2.104736328125t-0.41552734375,2.538330078125t-0.16259765625,1.951171875z M142.31969726562,41.8515625l0-0.52392578125q0-0.650390625,0.0361328125-1.228515625q0.0361328125-0.81298828125,0.0361328125-1.3369140625q0-0.2890625,0.0361328125-0.659423828125t0.1806640625-0.587158203125q0.1806640625-0.1806640625,0.424560546875-0.370361328125t0.532958984375-0.189697265625q0.92138671875,0,1.4453125,0.207763671875t0.56005859375,0.858154296875l0.072265625,0.56005859375q0.3251953125-0.77685546875,0.8671875-1.924072265625t1.255615234375-2.18603515625t1.60791015625-1.7705078125t1.887939453125-0.731689453125q0.92138671875,0,1.517578125,0.8671875t0.948486328125,2.213134765625t0.496826171875,2.9990234375t0.19873046875,3.242919921875t0.072265625,2.899658203125t0.12646484375,1.978271484375q0.072265625,0.56005859375,0.243896484375,1.183349609375t0.171630859375,1.147216796875q0,0.14453125-0.207763671875,0.280029296875t-0.442626953125,0.225830078125t-0.478759765625,0.14453125t-0.352294921875,0.05419921875q-0.70458984375,0-1.002685546875-1.056884765625t-0.370361328125-2.646728515625t-0.072265625-3.441650390625t-0.12646484375-3.441650390625t-0.514892578125-2.646728515625t-1.237548828125-1.093017578125q-0.77685546875,0-1.60791015625,1.002685546875t-1.42724609375,2.664794921875q-0.578125,1.662109375-0.794921875,3.77587890625q-0.072265625,0.66845703125-0.072265625,1.3369140625q0,1.46337890625,0.30712890625,2.9267578125q0.0361328125,0.2529296875-0.207763671875,0.37939453125t-0.605224609375,0.19873046875t-0.731689453125,0.09033203125t-0.569091796875,0.01806640625q-0.70458984375,0-1.129150390625-0.496826171875t-0.659423828125-1.273681640625t-0.316162109375-1.743408203125t-0.099365234375-1.906005859375z"/><path fill="#" d=""/></svg>
